<?xml version="1.0" encoding="UTF-8" standalone="no"?>
<!DOCTYPE svg PUBLIC "-//W3C//DTD SVG 1.1//EN" "http://www.w3.org/Graphics/SVG/1.1/DTD/svg11.dtd">
<svg width="100%" height="100%" viewBox="0 0 172 172" version="1.1" xmlns="http://www.w3.org/2000/svg" xmlns:xlink="http://www.w3.org/1999/xlink" xml:space="preserve" style="fill-rule:evenodd;clip-rule:evenodd;stroke-linejoin:round;stroke-miterlimit:1.41421;">
    <circle cx="85.65" cy="85.65" r="85.65" style="fill:rgb(63,191,187);"/>
    <g transform="matrix(1,0,0,1,-335.71,-211.89)">
        <path d="M372.9,307.53C373.062,306.186 373.293,304.851 373.59,303.53C373.859,302.321 374.22,301.134 374.67,299.98C375.047,298.996 375.526,298.054 376.1,297.17C376.53,296.474 377.124,295.893 377.83,295.48C378.634,295.128 379.459,294.824 380.3,294.57C381.22,294.262 382.193,294.143 383.16,294.22C383.981,294.281 384.725,294.731 385.16,295.43C385.62,296.157 385.59,297.413 385.07,299.2C384.798,300.414 384.595,301.643 384.46,302.88C384.287,304.353 384.187,305.94 384.16,307.64C384.133,309.34 384.177,311.043 384.29,312.75C384.389,314.337 384.606,315.915 384.94,317.47C385.199,318.751 385.637,319.99 386.24,321.15C386.641,322.026 387.354,322.722 388.24,323.1C389.635,323.692 391.225,323.63 392.57,322.93C393.912,322.117 395.065,321.026 395.95,319.73C396.339,319.112 396.837,318.569 397.42,318.13C397.807,317.767 398.319,317.566 398.85,317.57C399.223,317.63 399.41,318.007 399.41,318.7C399.251,319.913 398.868,321.087 398.28,322.16C397.504,323.787 396.467,325.277 395.21,326.57C394.018,327.811 392.612,328.827 391.06,329.57C389.524,330.295 387.865,330.722 386.17,330.83C384.408,330.92 382.646,330.637 381,330C379.417,329.51 377.967,328.665 376.76,327.53C375.583,326.326 374.709,324.858 374.21,323.25C373.542,321.131 373.136,318.938 373,316.72C372.8,313.661 372.767,310.593 372.9,307.53L372.9,307.53ZM376.79,276.63C377.332,275.436 378.409,274.568 379.69,274.29C380.947,274.001 382.258,274.032 383.5,274.38C384.695,274.701 385.793,275.309 386.7,276.15C387.545,276.858 387.956,277.962 387.78,279.05C387.514,280.433 386.721,281.659 385.57,282.47C384.33,283.423 382.47,283.783 379.99,283.55C379.303,283.495 378.651,283.221 378.13,282.77C377.576,282.301 377.121,281.726 376.79,281.08C376.439,280.395 376.248,279.639 376.23,278.87C376.197,278.085 376.392,277.307 376.79,276.63Z" style="fill:white;fill-rule:nonzero;"/>
    </g>
    <g transform="matrix(1,0,0,1,-335.71,-211.89)">
        <path d="M400.41,274.12C401.089,272.274 402.152,270.593 403.53,269.19C404.746,267.955 406.167,266.94 407.73,266.19C409.124,265.514 410.642,265.13 412.19,265.06C413.533,264.972 414.875,265.241 416.08,265.84C417.147,266.397 418.056,267.216 418.72,268.22C419.35,269.229 419.79,270.343 420.02,271.51C420.288,272.826 420.419,274.167 420.41,275.51C420.408,276.941 420.322,278.37 420.15,279.79C419.921,281.848 419.543,283.887 419.02,285.89C418.512,287.841 417.891,289.761 417.16,291.64C416.44,293.487 415.66,295.277 414.82,297.01C413.98,298.743 413.13,300.33 412.27,301.77C410.346,305.175 408.146,308.416 405.69,311.46C405.595,313.595 405.858,315.732 406.47,317.78C406.946,319.374 407.709,320.869 408.72,322.19C409.514,323.233 410.515,324.102 411.66,324.74C412.504,325.232 413.454,325.514 414.43,325.56C415.735,325.501 416.932,324.805 417.63,323.7C418.615,322.328 419.347,320.79 419.79,319.16C420.335,317.314 420.671,315.412 420.79,313.49C420.923,311.705 420.778,309.91 420.36,308.17C420.136,306.993 419.565,305.91 418.72,305.06C418.124,304.537 417.449,304.112 416.72,303.8C416.127,303.579 415.551,303.311 415,303C414.547,302.619 414.403,301.978 414.65,301.44C414.929,300.503 415.504,299.682 416.29,299.1C417.178,298.4 418.198,297.886 419.29,297.59C420.415,297.273 421.594,297.198 422.75,297.37C423.932,297.545 425.017,298.125 425.82,299.01C426.714,300.021 427.698,300.948 428.76,301.78C429.804,302.612 430.918,303.351 432.09,303.99C433.22,304.6 434.9,305.19 435.59,305.63C436.324,306.117 436.953,306.746 437.44,307.48C437.73,307.93 439.99,313.34 439.79,313.89C439.59,314.44 438.69,313.44 437.88,313.98C437.07,314.52 435.14,312.52 434.65,310.71C434.46,310.02 432.75,310.14 432.07,310.01C431.346,309.881 430.639,309.673 429.96,309.39C429.12,309.057 428.31,308.652 427.54,308.18C428.087,308.929 428.471,309.784 428.67,310.69C428.924,311.671 429.068,312.677 429.1,313.69C429.138,315.142 429.021,316.593 428.75,318.02C428.409,319.505 427.931,320.954 427.32,322.35C426.636,323.942 425.686,325.407 424.51,326.68C423.22,328.067 421.68,329.197 419.97,330.01C417.895,330.958 415.63,331.417 413.35,331.35C409.89,331.472 406.484,330.453 403.66,328.45C401.012,326.453 398.914,323.817 397.56,320.79C396.036,317.367 395.057,313.726 394.66,310C394.168,305.865 394.081,301.692 394.4,297.54C394.712,293.306 395.409,289.108 396.48,285C397.423,281.251 398.739,277.606 400.41,274.12L400.41,274.12ZM404.3,304.41C406.021,302.062 407.559,299.584 408.9,297C410.198,294.214 411.327,291.352 412.28,288.43C413.428,284.864 414.127,281.169 414.36,277.43C414.492,276.091 414.404,274.74 414.1,273.43C413.957,272.604 413.528,271.854 412.89,271.31C412.356,270.965 411.656,271.001 411.16,271.4C410.323,272.06 409.668,272.925 409.26,273.91C408.595,275.311 408.03,276.758 407.57,278.24C407.067,279.804 406.643,281.393 406.3,283C405.953,284.673 405.663,286.377 405.43,288.11C405.197,289.843 404.993,291.487 404.82,293.04C404.48,296.76 404.31,300.55 404.31,304.41L404.3,304.41Z" style="fill:white;fill-rule:nonzero;"/>
    </g>
    <g transform="matrix(1,0,0,1,-335.71,-211.89)">
        <path d="M455.11,320C456.912,319.497 458.516,318.449 459.7,317C460.83,315.607 461.603,313.959 461.95,312.2C462.295,310.432 462.206,308.606 461.69,306.88C461.163,305.081 460.144,303.463 458.75,302.21C457.701,301.166 456.357,300.467 454.9,300.21C453.487,299.983 452.06,299.797 450.62,299.65C449.26,299.526 447.919,299.251 446.62,298.83C445.342,298.363 444.309,297.395 443.76,296.15C443.197,295.362 443.197,294.298 443.76,293.51C444.416,292.489 445.218,291.569 446.14,290.78C447.18,289.86 448.333,288.893 449.6,287.88C450.805,286.931 451.919,285.873 452.93,284.72C453.816,283.746 454.454,282.573 454.79,281.3C455.043,279.954 454.732,278.561 453.93,277.45C453.676,276.917 453.131,276.579 452.54,276.59C451.753,276.542 450.964,276.616 450.2,276.81C449.279,277.023 448.391,277.359 447.56,277.81C446.735,278.247 445.988,278.818 445.35,279.5C444.945,279.922 444.567,280.369 444.22,280.84C443.775,281.425 443.283,281.974 442.75,282.48C442.287,282.96 441.703,283.305 441.06,283.48C440.38,283.596 439.69,283.312 439.29,282.75C438.498,281.905 438.216,280.699 438.55,279.59C438.924,278.297 439.572,277.1 440.45,276.08C441.444,274.883 442.56,273.794 443.78,272.83C446.729,270.327 450.516,269.027 454.38,269.19C456.278,269.218 458.139,269.724 459.79,270.66C461.276,271.536 462.457,272.849 463.17,274.42C463.933,276.129 464.229,278.009 464.03,279.87C463.838,281.494 463.371,283.073 462.65,284.54C461.908,286.08 461.038,287.555 460.05,288.95C459.113,290.286 458.073,291.546 456.94,292.72C456.042,293.683 455.035,294.539 453.94,295.27C455.73,295.223 457.519,295.412 459.26,295.83C461.146,296.268 462.975,296.922 464.71,297.78C466.48,298.653 468.125,299.759 469.6,301.07C471.072,302.364 472.289,303.92 473.19,305.66C474.109,307.48 474.653,309.466 474.79,311.5C474.951,313.878 474.61,316.263 473.79,318.5C473.237,320.06 472.369,321.49 471.24,322.7C470.016,324.032 468.621,325.196 467.09,326.16C465.456,327.192 463.716,328.047 461.9,328.71C460.112,329.378 458.272,329.899 456.4,330.27C454.343,330.62 452.237,330.545 450.21,330.05C448.335,329.586 446.55,328.812 444.93,327.76C443.363,326.738 441.938,325.514 440.69,324.12C439.515,322.839 438.507,321.414 437.69,319.88C436.516,317.142 435.566,314.312 434.85,311.42C434.601,310.223 434.691,308.979 435.11,307.83C435.51,306.62 435.65,306.39 436.03,306.54C436.707,306.727 437.291,307.158 437.67,307.75C438.22,308.61 440.26,313.86 441.07,315.13C441.907,316.436 442.959,317.593 444.18,318.55C445.528,319.597 447.098,320.322 448.77,320.67C450.905,321.013 453.094,320.782 455.11,320L455.11,320Z" style="fill:white;fill-rule:nonzero;"/>
    </g>
</svg>
