<svg id="Layer_1" data-name="Layer 1" xmlns="http://www.w3.org/2000/svg" viewBox="0 0 171.29 171.29"><defs><style>.cls-1{fill:#3fbfbb}.cls-2{fill:#fff}</style></defs><title>ib3 logo P325U</title><circle class="cls-1" cx="85.65" cy="85.65" r="85.65"/><path class="cls-2" d="M372.9 307.53a40.08 40.08 0 0 1 .69-4 24.21 24.21 0 0 1 1.08-3.55 15 15 0 0 1 1.43-2.81 5 5 0 0 1 1.73-1.69 22 22 0 0 1 2.47-.91 7.2 7.2 0 0 1 2.86-.35 2.58 2.58 0 0 1 2 1.21q.69 1.09-.09 3.77a33.49 33.49 0 0 0-.61 3.68q-.26 2.21-.3 4.76t.13 5.11a32 32 0 0 0 .65 4.72 14 14 0 0 0 1.3 3.68 3.87 3.87 0 0 0 2 1.95 5.08 5.08 0 0 0 4.33-.17 11 11 0 0 0 3.38-3.2 6 6 0 0 1 1.47-1.6 2.07 2.07 0 0 1 1.43-.56q.56.09.56 1.13a9.87 9.87 0 0 1-1.13 3.46 16.54 16.54 0 0 1-3.07 4.41 14.32 14.32 0 0 1-4.15 3 13.46 13.46 0 0 1-4.89 1.26A12.55 12.55 0 0 1 381 330a10.89 10.89 0 0 1-4.24-2.47 10.63 10.63 0 0 1-2.55-4.28 27.27 27.27 0 0 1-1.21-6.53 84.62 84.62 0 0 1-.1-9.19zm3.89-30.9a4.15 4.15 0 0 1 2.9-2.34 7.72 7.72 0 0 1 3.81.09 7.61 7.61 0 0 1 3.2 1.77 3.13 3.13 0 0 1 1.08 2.9 5.44 5.44 0 0 1-2.21 3.42q-1.86 1.43-5.58 1.08a3.24 3.24 0 0 1-1.86-.78 5.5 5.5 0 0 1-1.34-1.69 5.1 5.1 0 0 1-.56-2.21 4.08 4.08 0 0 1 .56-2.24z" transform="translate(-335.71 -211.89)"/><path class="cls-2" d="M400.41 274.12a13.87 13.87 0 0 1 3.12-4.93 15 15 0 0 1 4.2-3 11.4 11.4 0 0 1 4.46-1.13 7.62 7.62 0 0 1 3.89.78 7.1 7.1 0 0 1 2.64 2.38 9.78 9.78 0 0 1 1.3 3.29 19.36 19.36 0 0 1 .39 4 36 36 0 0 1-.26 4.28 42.9 42.9 0 0 1-1.13 6.1 51.83 51.83 0 0 1-1.86 5.75q-1.08 2.77-2.34 5.37t-2.55 4.76a71.23 71.23 0 0 1-6.58 9.69 19.11 19.11 0 0 0 .78 6.32 13.72 13.72 0 0 0 2.25 4.41 9.52 9.52 0 0 0 2.94 2.55 6.07 6.07 0 0 0 2.77.82 4 4 0 0 0 3.2-1.86 14.14 14.14 0 0 0 2.16-4.54 25.62 25.62 0 0 0 1-5.67 17.31 17.31 0 0 0-.43-5.32 6 6 0 0 0-1.64-3.11 7.54 7.54 0 0 0-2-1.26 12.07 12.07 0 0 1-1.72-.8 1.32 1.32 0 0 1-.35-1.56 4.51 4.51 0 0 1 1.64-2.34 8.39 8.39 0 0 1 3-1.51 8.27 8.27 0 0 1 3.46-.22 5.17 5.17 0 0 1 3.07 1.64 22.24 22.24 0 0 0 2.94 2.77 23 23 0 0 0 3.33 2.21c1.13.61 2.81 1.2 3.5 1.64a6.58 6.58 0 0 1 1.85 1.85c.29.45 2.55 5.86 2.35 6.41s-1.1-.45-1.91.09-2.74-1.46-3.23-3.27c-.19-.69-1.9-.57-2.58-.7a10.08 10.08 0 0 1-2.11-.62 15.72 15.72 0 0 1-2.42-1.21 6.69 6.69 0 0 1 1.13 2.51 13.72 13.72 0 0 1 .43 3 20.37 20.37 0 0 1-.35 4.33 24.45 24.45 0 0 1-1.43 4.33 15.26 15.26 0 0 1-2.81 4.33 15 15 0 0 1-4.54 3.33 14.88 14.88 0 0 1-6.62 1.34 15.79 15.79 0 0 1-9.69-2.9 19.63 19.63 0 0 1-6.1-7.66 35.87 35.87 0 0 1-2.9-10.79 64 64 0 0 1-.26-12.46 70.16 70.16 0 0 1 2.08-12.54 57.76 57.76 0 0 1 3.93-10.88zm3.89 30.29a56.76 56.76 0 0 0 4.6-7.41 76.43 76.43 0 0 0 3.38-8.57 45 45 0 0 0 2.08-11 12.35 12.35 0 0 0-.26-4 3.59 3.59 0 0 0-1.21-2.12 1.48 1.48 0 0 0-1.73.09 6.24 6.24 0 0 0-1.9 2.51 32.72 32.72 0 0 0-1.69 4.33 49 49 0 0 0-1.27 4.76q-.52 2.51-.87 5.11t-.61 4.93q-.51 5.58-.51 11.37z" transform="translate(-335.71 -211.89)"/><path class="cls-2" d="M455.11 320a9.08 9.08 0 0 0 4.59-3 11 11 0 0 0 2.25-4.8 11.14 11.14 0 0 0-.26-5.32 10.1 10.1 0 0 0-2.94-4.67 7.24 7.24 0 0 0-3.85-2q-2.12-.34-4.28-.56a18.37 18.37 0 0 1-4-.82 5 5 0 0 1-2.86-2.68 2.27 2.27 0 0 1 0-2.64 12.42 12.42 0 0 1 2.38-2.73q1.56-1.38 3.46-2.9a25 25 0 0 0 3.33-3.16 8.18 8.18 0 0 0 1.86-3.42 5 5 0 0 0-.86-3.85 1.51 1.51 0 0 0-1.39-.86 7.61 7.61 0 0 0-2.34.22 10.5 10.5 0 0 0-2.64 1 8.42 8.42 0 0 0-2.21 1.69 13.49 13.49 0 0 0-1.13 1.34 13.61 13.61 0 0 1-1.47 1.64 3.69 3.69 0 0 1-1.69 1 1.8 1.8 0 0 1-1.77-.73 3.25 3.25 0 0 1-.74-3.16 9.38 9.38 0 0 1 1.9-3.51 22.28 22.28 0 0 1 3.33-3.25 15.38 15.38 0 0 1 10.6-3.64 11.31 11.31 0 0 1 5.41 1.47 8.39 8.39 0 0 1 3.38 3.76 10.6 10.6 0 0 1 .86 5.45 14.45 14.45 0 0 1-1.38 4.67 30.57 30.57 0 0 1-2.6 4.41 31.35 31.35 0 0 1-3.11 3.77 17 17 0 0 1-3 2.55 20.48 20.48 0 0 1 5.32.56 25.12 25.12 0 0 1 5.45 1.95 22.05 22.05 0 0 1 4.89 3.29 15.76 15.76 0 0 1 3.59 4.59 15.23 15.23 0 0 1 1.6 5.84 17 17 0 0 1-1 7 12.07 12.07 0 0 1-2.55 4.2 20.39 20.39 0 0 1-4.15 3.46 27.17 27.17 0 0 1-5.19 2.55 35.35 35.35 0 0 1-5.5 1.56 15.28 15.28 0 0 1-6.19-.22 17.36 17.36 0 0 1-5.28-2.29 21.35 21.35 0 0 1-4.24-3.64 20.59 20.59 0 0 1-3-4.24 55 55 0 0 1-2.84-8.46 6.58 6.58 0 0 1 .26-3.59c.4-1.21.54-1.44.92-1.29a2.85 2.85 0 0 1 1.64 1.21c.55.86 2.59 6.11 3.4 7.38a13.83 13.83 0 0 0 3.11 3.42 11.2 11.2 0 0 0 4.59 2.12 12.19 12.19 0 0 0 6.34-.67z" transform="translate(-335.71 -211.89)"/></svg>